<svg width="20" height="17" viewBox="0 0 20 17" fill="none" xmlns="http://www.w3.org/2000/svg">
<path d="M19.7338 9.36001C19.9043 9.1319 20 8.82255 20 8.5C20 8.17745 19.9043 7.8681 19.7338 7.63999L14.2792 0.341464C14.1078 0.119883 13.8781 -0.00272553 13.6398 4.59837e-05C13.4014 0.0028175 13.1734 0.130748 13.0048 0.356282C12.8363 0.581816 12.7407 0.88691 12.7386 1.20585C12.7365 1.52479 12.8282 1.83206 12.9938 2.06148L16.8965 7.28358H0.9091C0.667992 7.28358 0.436758 7.41174 0.266269 7.63986C0.0957798 7.86798 0 8.17738 0 8.5C0 8.82261 0.0957798 9.13202 0.266269 9.36014C0.436758 9.58826 0.667992 9.71642 0.9091 9.71642H16.8965L12.9938 14.9385C12.8282 15.1679 12.7365 15.4752 12.7386 15.7941C12.7407 16.1131 12.8363 16.4182 13.0048 16.6437C13.1734 16.8693 13.4014 16.9972 13.6398 17C13.8781 17.0027 14.1078 16.8801 14.2792 16.6585L19.7338 9.36001Z" fill="#3B82F6"/>
</svg>
