<svg width="20" height="20" viewBox="0 0 20 20" fill="none" xmlns="http://www.w3.org/2000/svg">
<path d="M10 0C7.34784 0 4.8043 1.0536 2.92893 2.92901C1.05357 4.80442 0 7.34803 0 10.0003C6.83691e-05 11.3135 0.258794 12.6139 0.761404 13.8272C1.26401 15.0404 2.00067 16.1428 2.9293 17.0714C3.85793 17.9999 4.96036 18.7365 6.17365 19.239C7.38693 19.7415 8.6873 20.0001 10.0005 20C11.3137 19.9999 12.6141 19.7412 13.8273 19.2386C15.0405 18.736 16.1429 17.9993 17.0714 17.0706C18 16.142 18.7365 15.0395 19.239 13.8262C19.7415 12.6129 20.0001 11.3125 20 9.99922C20 4.4772 15.5219 0 10 0ZM10 17.9161C8.9528 17.9281 7.91361 17.7322 6.94265 17.3398C5.97168 16.9473 5.08823 16.3661 4.34346 15.6298C3.59869 14.8935 3.00741 14.0168 2.60386 13.0504C2.20032 12.0839 1.99252 11.047 1.99252 9.99974C1.99252 8.95244 2.20032 7.91555 2.60386 6.94912C3.00741 5.98269 3.59869 5.10594 4.34346 4.36965C5.08823 3.63336 5.97168 3.05215 6.94265 2.65971C7.91361 2.26726 8.9528 2.07137 10 2.08339C11.0472 2.07137 12.0864 2.26726 13.0574 2.65971C14.0283 3.05215 14.9118 3.63336 15.6565 4.36965C16.4013 5.10594 16.9926 5.98269 17.3961 6.94912C17.7997 7.91555 18.0075 8.95244 18.0075 9.99974C18.0075 11.047 17.7997 12.0839 17.3961 13.0504C16.9926 14.0168 16.4013 14.8935 15.6565 15.6298C14.9118 16.3661 14.0283 16.9473 13.0574 17.3398C12.0864 17.7322 11.0472 17.9281 10 17.9161Z" fill="#3B82F6"/>
</svg>
