<svg xmlns="http://www.w3.org/2000/svg" fill="none" viewBox="5 0 67 32">
<rect x="5" width="67" height="32" rx="16" fill="#3B82F6"/>
<g filter="url(#filter0_d_296_6976)">
<circle cx="20" cy="16" r="10" fill="white"/>
</g>
<path d="M63.891 20.2526C63.8104 20.0775 63.6756 19.9264 63.5021 19.8166C63.3287 19.7069 63.1238 19.6431 62.9111 19.6326C61.6421 19.5644 60.4206 19.1799 59.3867 18.5231C58.3528 17.8663 57.5485 16.9639 57.0663 15.9196C56.584 14.8753 56.4433 13.7314 56.6603 12.6193C56.8773 11.5072 57.4432 10.472 58.2931 9.63257C58.4244 9.49718 58.5125 9.33301 58.5482 9.15714C58.5838 8.98127 58.5657 8.80014 58.4958 8.63258C58.4152 8.45755 58.2804 8.3064 58.1069 8.19666C57.9335 8.08692 57.7286 8.02309 57.5159 8.01258C56.1808 7.94603 54.8457 8.14416 53.6075 8.59258C52.3552 9.04608 51.234 9.74403 50.327 10.6347C49.4199 11.5253 48.7503 12.5858 48.3679 13.7375C47.9854 14.8892 47.8998 16.1026 48.1175 17.2877C48.3352 18.4727 48.8505 19.5991 49.6253 20.5832C50.4002 21.5674 51.4145 22.384 52.5933 22.9727C53.7721 23.5613 55.085 23.9069 56.4346 23.9836C57.7843 24.0604 59.1361 23.8665 60.3899 23.4162C61.6436 22.9659 62.7671 22.2709 63.677 21.3826C63.8388 21.2364 63.9461 21.0496 63.9844 20.8475C64.0227 20.6454 63.9901 20.4377 63.891 20.2526Z" fill="white"/>
<defs>
<filter id="filter0_d_296_6976" x="0" y="1" width="40" height="40" filterUnits="userSpaceOnUse" color-interpolation-filters="sRGB">
<feFlood flood-opacity="0" result="BackgroundImageFix"/>
<feColorMatrix in="SourceAlpha" type="matrix" values="0 0 0 0 0 0 0 0 0 0 0 0 0 0 0 0 0 0 127 0" result="hardAlpha"/>
<feOffset dy="5"/>
<feGaussianBlur stdDeviation="5"/>
<feComposite in2="hardAlpha" operator="out"/>
<feColorMatrix type="matrix" values="0 0 0 0 0 0 0 0 0 0 0 0 0 0 0 0 0 0 0.25 0"/>
<feBlend mode="normal" in2="BackgroundImageFix" result="effect1_dropShadow_296_6976"/>
<feBlend mode="normal" in="SourceGraphic" in2="effect1_dropShadow_296_6976" result="shape"/>
</filter>
</defs>
</svg>