<svg width="20" height="20" viewBox="0 0 20 20" fill="none" xmlns="http://www.w3.org/2000/svg">
<path d="M0.496745 6.97561L9.49983 12.0488C9.6999 12.1463 9.79993 12.1463 10 12.1463C10.2001 12.1463 10.3001 12.1463 10.5002 12.0488L19.5033 6.97561C19.7033 6.87805 19.8034 6.78049 19.9034 6.58537C20.1035 6.09756 20.0034 5.5122 19.5033 5.21951L10.5002 0.146341C10.2001 -0.0487805 9.79993 -0.0487805 9.49983 0.146341L0.496745 5.21951C0.296676 5.31707 0.196642 5.41463 0.0966076 5.60976C-0.103461 6.09756 -0.00342656 6.68293 0.496745 6.97561ZM19.5033 9.12195L19.3032 9.02439L10.5002 14C10.2001 14.1951 9.79993 14.1951 9.49983 14L0.696813 9.02439L0.496745 9.12195C-0.00342656 9.41463 -0.103461 10 0.0966076 10.4878C0.196642 10.6829 0.296676 10.7805 0.496745 10.878L9.49983 15.9512C9.79993 16.1463 10.2001 16.1463 10.5002 15.9512L19.5033 10.878C20.0034 10.5854 20.1035 10 19.9034 9.5122C19.8034 9.31707 19.7033 9.21951 19.5033 9.12195ZM19.5033 13.0244L19.3032 12.9268L10.5002 17.9024C10.2001 18.0976 9.79993 18.0976 9.49983 17.9024L0.696813 12.9268L0.496745 13.0244C-0.00342656 13.3171 -0.103461 13.9024 0.0966076 14.3902C0.196642 14.5854 0.296676 14.6829 0.496745 14.7805L9.49983 19.8537C9.79993 20.0488 10.2001 20.0488 10.5002 19.8537L19.5033 14.7805C20.0034 14.4878 20.1035 13.9024 19.9034 13.4146C19.8034 13.2195 19.7033 13.122 19.5033 13.0244Z" fill="#3B82F6"/>
</svg>
