<svg width="20" height="20" viewBox="0 0 20 20" fill="none" xmlns="http://www.w3.org/2000/svg">
<path d="M19.71 9.31002L16.71 6.31002C16.5217 6.12171 16.2663 6.01592 16 6.01592C15.7337 6.01592 15.4783 6.12171 15.29 6.31002C15.1017 6.49832 14.9959 6.75372 14.9959 7.02002C14.9959 7.28632 15.1017 7.54171 15.29 7.73002L16.58 9.00002H11V3.41002L12.29 4.71002C12.3835 4.8027 12.4943 4.87602 12.6161 4.92579C12.7379 4.97555 12.8684 5.00078 13 5.00002C13.1316 5.00078 13.2621 4.97555 13.3839 4.92579C13.5058 4.87602 13.6166 4.8027 13.71 4.71002C13.8037 4.61705 13.8781 4.50645 13.9289 4.38459C13.9797 4.26273 14.0058 4.13203 14.0058 4.00002C14.0058 3.868 13.9797 3.7373 13.9289 3.61544C13.8781 3.49358 13.8037 3.38298 13.71 3.29002L10.71 0.290017C10.6166 0.197335 10.5058 0.12401 10.3839 0.0742455C10.2621 0.0244809 10.1316 -0.000744179 10 1.67143e-05C9.73768 0.00112134 9.48628 0.105273 9.30002 0.290017L6.30002 3.29002C6.20678 3.3826 6.13269 3.49264 6.08198 3.61385C6.03126 3.73507 6.00493 3.86509 6.00446 3.99648C6.004 4.12788 6.02942 4.25808 6.07927 4.37965C6.12912 4.50122 6.20243 4.61178 6.29502 4.70502C6.3876 4.79826 6.49764 4.87235 6.61885 4.92306C6.74007 4.97377 6.87009 5.00011 7.00148 5.00057C7.26685 5.00151 7.52171 4.89699 7.71002 4.71002L9.00002 3.42002V9.00002H3.41002L4.71002 7.71002C4.89832 7.52171 5.00411 7.26632 5.00411 7.00002C5.00411 6.73372 4.89832 6.47832 4.71002 6.29002C4.52171 6.10171 4.26632 5.99592 4.00002 5.99592C3.73372 5.99592 3.47832 6.10171 3.29002 6.29002L0.290017 9.29002C0.197335 9.38346 0.12401 9.49427 0.0742455 9.61611C0.0244809 9.73795 -0.000744179 9.86841 1.67143e-05 10C-0.000744179 10.1316 0.0244809 10.2621 0.0742455 10.3839C0.12401 10.5058 0.197335 10.6166 0.290017 10.71L3.29002 13.71C3.38346 13.8027 3.49427 13.876 3.61611 13.9258C3.73795 13.9756 3.86841 14.0008 4.00002 14C4.13162 14.0008 4.26209 13.9756 4.38392 13.9258C4.50576 13.876 4.61658 13.8027 4.71002 13.71C4.80375 13.6171 4.87814 13.5065 4.92891 13.3846C4.97968 13.2627 5.00582 13.132 5.00582 13C5.00582 12.868 4.97968 12.7373 4.92891 12.6154C4.87814 12.4936 4.80375 12.383 4.71002 12.29L3.42002 11H9.00002V16.59L7.71002 15.29C7.61678 15.1968 7.50609 15.1228 7.38427 15.0724C7.26244 15.0219 7.13188 14.9959 7.00002 14.9959C6.86816 14.9959 6.73759 15.0219 6.61577 15.0724C6.49394 15.1228 6.38326 15.1968 6.29002 15.29C6.19678 15.3833 6.12282 15.4939 6.07236 15.6158C6.0219 15.7376 5.99592 15.8682 5.99592 16C5.99592 16.1319 6.0219 16.2624 6.07236 16.3843C6.12282 16.5061 6.19678 16.6168 6.29002 16.71L9.29002 19.71C9.38346 19.8027 9.49427 19.876 9.61611 19.9258C9.73795 19.9756 9.86841 20.0008 10 20C10.2624 19.9989 10.5138 19.8948 10.7 19.71L13.7 16.71C13.8883 16.5217 13.9941 16.2663 13.9941 16C13.9941 15.7337 13.8883 15.4783 13.7 15.29C13.5117 15.1017 13.2563 14.9959 12.99 14.9959C12.7237 14.9959 12.4683 15.1017 12.28 15.29L11 16.58V11H16.59L15.29 12.29C15.1963 12.383 15.1219 12.4936 15.0711 12.6154C15.0204 12.7373 14.9942 12.868 14.9942 13C14.9942 13.132 15.0204 13.2627 15.0711 13.3846C15.1219 13.5065 15.1963 13.6171 15.29 13.71C15.3835 13.8027 15.4943 13.876 15.6161 13.9258C15.7379 13.9756 15.8684 14.0008 16 14C16.1316 14.0008 16.2621 13.9756 16.3839 13.9258C16.5058 13.876 16.6166 13.8027 16.71 13.71L19.71 10.71C19.8027 10.6166 19.876 10.5058 19.9258 10.3839C19.9756 10.2621 20.0008 10.1316 20 10C19.9963 9.74115 19.8924 9.49381 19.71 9.31002Z" fill="#3B82F6"/>
</svg>
