<svg width="20" height="20" viewBox="0 0 20 20" fill="none" xmlns="http://www.w3.org/2000/svg">
<path d="M0.999996 9.00146C1.26521 9.00146 1.51957 9.10682 1.7071 9.29436C1.89464 9.48189 2 9.73625 2 10.0015C1.98809 11.8745 2.62971 13.693 3.81434 15.1439C4.99897 16.5948 6.65247 17.5871 8.49004 17.9501C10.3276 18.313 12.2342 18.0238 13.8815 17.1322C15.5288 16.2407 16.8136 14.8026 17.5147 13.0657C18.2158 11.3288 18.2892 9.40178 17.7224 7.61654C17.1556 5.8313 15.9839 4.2996 14.4093 3.28524C12.8347 2.27089 10.9556 1.83738 9.09574 2.05938C7.23587 2.28137 5.51164 3.14498 4.22 4.50146H6.62C6.88521 4.50146 7.13957 4.60682 7.3271 4.79436C7.51464 4.98189 7.62 5.23625 7.62 5.50146C7.62 5.76668 7.51464 6.02103 7.3271 6.20857C7.13957 6.39611 6.88521 6.50146 6.62 6.50146H2.09C1.82478 6.50146 1.57043 6.39611 1.38289 6.20857C1.19535 6.02103 1.09 5.76668 1.09 5.50146V1.00146C1.09 0.736248 1.19535 0.481894 1.38289 0.294358C1.57043 0.106821 1.82478 0.00146455 2.09 0.00146455C2.35521 0.00146455 2.60957 0.106821 2.7971 0.294358C2.98464 0.481894 3.09 0.736248 3.09 1.00146V2.77146C4.75533 1.17952 6.91925 0.211417 9.21598 0.0307936C11.5127 -0.14983 13.8014 0.468109 15.6951 1.78015C17.5888 3.0922 18.9714 5.01787 19.6092 7.23165C20.2469 9.44544 20.1008 11.8115 19.1954 13.93C18.29 16.0484 16.6809 17.7893 14.6401 18.8583C12.5993 19.9273 10.252 20.2589 7.99496 19.7969C5.73792 19.335 3.7096 18.1079 2.25286 16.3231C0.796127 14.5383 0.000330776 12.3053 -3.8147e-06 10.0015C-3.8147e-06 9.73625 0.105352 9.48189 0.292889 9.29436C0.480425 9.10682 0.73478 9.00146 0.999996 9.00146Z" fill="#3B82F6"/>
</svg>
