<svg width="20" height="20" viewBox="0 0 20 20" fill="none" xmlns="http://www.w3.org/2000/svg">
<path d="M8.70605 0C13.5064 0.000229108 17.4111 3.90566 17.4111 8.70605C17.411 10.8823 16.5991 12.8525 15.2734 14.3809L19.7041 18.8486C19.7839 18.8978 19.8519 18.9649 19.9023 19.0439C19.9527 19.123 19.9851 19.2125 19.9961 19.3057C20.007 19.3988 19.9965 19.4935 19.9658 19.582C19.935 19.6707 19.8847 19.752 19.8184 19.8184C19.752 19.8847 19.6707 19.935 19.582 19.9658C19.4935 19.9965 19.3988 20.007 19.3057 19.9961C19.2125 19.9851 19.123 19.9527 19.0439 19.9023C18.9649 19.8519 18.8978 19.7839 18.8486 19.7041L14.3809 15.2734C12.8109 16.6501 10.7941 17.4096 8.70605 17.4111C3.90566 17.4111 0.000229112 13.5064 0 8.70605C0 3.90552 3.90552 0 8.70605 0ZM8.5498 3.73438C8.35788 3.77107 8.1847 3.87472 8.06152 4.02637C7.93856 4.17794 7.87348 4.36834 7.87695 4.56348V7.87891H4.56055C4.34065 7.87891 4.12912 7.96566 3.97363 8.12109C3.81823 8.27646 3.73152 8.48732 3.73145 8.70703C3.73145 8.92671 3.81833 9.13756 3.97363 9.29297C4.12912 9.4484 4.34065 9.53613 4.56055 9.53613H7.87695V12.8516C7.87698 13.0713 7.96376 13.2821 8.11914 13.4375C8.27463 13.5929 8.48616 13.6807 8.70605 13.6807C8.9258 13.6806 9.1366 13.5928 9.29199 13.4375C9.44742 13.2821 9.53513 13.0713 9.53516 12.8516V9.53613H12.8516C13.0713 9.53603 13.2821 9.44831 13.4375 9.29297C13.5928 9.13756 13.6807 8.92674 13.6807 8.70703C13.6806 8.48731 13.5929 8.27646 13.4375 8.12109C13.2821 7.96578 13.0713 7.87901 12.8516 7.87891H9.53516V4.56348C9.53516 4.34378 9.44731 4.13295 9.29199 3.97754C9.1366 3.8222 8.9258 3.73449 8.70605 3.73438C8.6786 3.7319 8.65061 3.73118 8.62305 3.73145C8.59926 3.73153 8.5735 3.73225 8.5498 3.73438Z" fill="#3B82F6"/>
</svg>
