<svg width="20" height="15" viewBox="0 0 20 15" fill="none" xmlns="http://www.w3.org/2000/svg">
<path fill-rule="evenodd" clip-rule="evenodd" d="M10 0C7.78154 0 5.71846 1.14305 4.05538 2.54804C1.66692 4.56757 0.115385 7.09159 0.115385 7.09159C-0.0384615 7.3419 -0.0384615 7.6581 0.115385 7.90841C0.115385 7.90841 1.66692 10.4324 4.05538 12.452C5.71846 13.8569 7.78154 15 10 15C12.2185 15 14.2815 13.8569 15.9446 12.452C18.3331 10.4324 19.8846 7.90841 19.8846 7.90841C20.0385 7.6581 20.0385 7.3419 19.8846 7.09159C19.8846 7.09159 18.3331 4.56757 15.9446 2.54804C14.2815 1.14305 12.2185 0 10 0ZM9.94 3.87476C7.95385 3.87476 6.34154 5.49907 6.34154 7.5C6.34154 9.50093 7.95385 11.1252 9.94 11.1252C11.9269 11.1252 13.5392 9.50093 13.5392 7.5C13.5392 5.49907 11.9269 3.87476 9.94 3.87476ZM9.94 5.42467C11.0777 5.42467 12.0008 6.35462 12.0008 7.5C12.0008 8.64538 11.0777 9.57533 9.94 9.57533C8.80308 9.57533 7.88 8.64538 7.88 7.5C7.88 6.35462 8.80308 5.42467 9.94 5.42467Z" fill="white"/>
</svg>
