<svg width="20" height="20" viewBox="0 0 20 20" fill="none" xmlns="http://www.w3.org/2000/svg">
<path d="M3.99554 0C1.79986 0 0 1.79817 0 3.99415V16.0058C0 18.2018 1.79986 20 3.99554 20H16.0055C18.2012 20 19.9991 18.2018 19.9991 16.0058C20.0011 11.9971 19.9991 8.00194 19.9991 3.99415C19.9991 1.79817 18.2012 0 16.0055 0H3.99554ZM3.99554 1.99513H9.0294V8.97808H1.99485V3.99415C1.99485 2.86896 2.8705 1.99513 3.99554 1.99513ZM11.0243 1.99513H16.0055C17.1306 1.99513 18.0043 2.86896 18.0043 3.99415V8.97808H11.0243V1.99513ZM1.99485 10.9732H9.0294V18.0049H3.99554C2.87049 18.0049 1.99485 17.131 1.99485 16.0058V10.9732ZM11.0243 10.9732H18.0043V16.0058C18.0043 17.131 17.1306 18.0049 16.0055 18.0049H11.0243V10.9732Z" fill="#AAAAAA"/>
</svg>
