<svg width="20" height="20" viewBox="0 0 20 20" fill="none" xmlns="http://www.w3.org/2000/svg">
<path d="M17.5 17.5C17.279 17.5 17.067 17.4122 16.9108 17.2559C16.7545 17.0996 16.6667 16.8877 16.6667 16.6667V13.3333H13.3334C13.1123 13.3333 12.9004 13.2455 12.7441 13.0893C12.5878 12.933 12.5 12.721 12.5 12.5C12.5 12.279 12.5878 12.067 12.7441 11.9107C12.9004 11.7545 13.1123 11.6667 13.3334 11.6667H17.5C17.721 11.6667 17.933 11.7545 18.0893 11.9107C18.2456 12.067 18.3334 12.279 18.3334 12.5V16.6667C18.3334 16.8877 18.2456 17.0996 18.0893 17.2559C17.933 17.4122 17.721 17.5 17.5 17.5ZM6.66669 8.33333H2.50002C2.27901 8.33333 2.06704 8.24554 1.91076 8.08926C1.75448 7.93297 1.66669 7.72101 1.66669 7.5V3.33333C1.66669 3.11232 1.75448 2.90036 1.91076 2.74408C2.06704 2.5878 2.27901 2.5 2.50002 2.5C2.72103 2.5 2.933 2.5878 3.08928 2.74408C3.24556 2.90036 3.33335 3.11232 3.33335 3.33333V6.66667H6.66669C6.8877 6.66667 7.09966 6.75446 7.25594 6.91074C7.41222 7.06702 7.50002 7.27899 7.50002 7.5C7.50002 7.72101 7.41222 7.93297 7.25594 8.08926C7.09966 8.24554 6.8877 8.33333 6.66669 8.33333Z" fill="#AAAAAA"/>
<path d="M10 18.3333C7.9498 18.3337 5.97139 17.5783 4.44319 16.2115C2.91499 14.8447 1.94427 12.9626 1.7167 10.925C1.70466 10.8156 1.71429 10.7048 1.74505 10.5991C1.77581 10.4934 1.82709 10.3948 1.89596 10.3089C2.03505 10.1354 2.23735 10.0243 2.45836 9.99999C2.67938 9.97568 2.901 10.0402 3.07447 10.1793C3.24794 10.3183 3.35905 10.5206 3.38336 10.7417C3.54808 12.2439 4.21832 13.6456 5.2842 14.717C6.35007 15.7883 7.74833 16.4658 9.24972 16.6382C10.7511 16.8106 12.2665 16.4678 13.5475 15.6659C14.8285 14.8641 15.7991 13.6508 16.3 12.225C16.3313 12.1154 16.3847 12.0134 16.4569 11.9252C16.5292 11.8371 16.6187 11.7647 16.72 11.7125C16.8214 11.6603 16.9323 11.6295 17.0461 11.622C17.1598 11.6144 17.2738 11.6302 17.3812 11.6685C17.4885 11.7067 17.5869 11.7666 17.6702 11.8444C17.7535 11.9222 17.82 12.0162 17.8655 12.1207C17.911 12.2252 17.9346 12.3379 17.9348 12.4519C17.935 12.5659 17.9118 12.6787 17.8667 12.7833C17.2908 14.4086 16.2249 15.8152 14.8159 16.8093C13.407 17.8033 11.7243 18.3358 10 18.3333ZM17.45 9.99999C17.244 10.0012 17.0448 9.92614 16.891 9.78917C16.7371 9.65221 16.6394 9.46309 16.6167 9.25833C16.4446 7.76327 15.7717 6.37042 14.7075 5.30633C13.6433 4.24225 12.2504 3.56953 10.7553 3.39762C9.26024 3.22571 7.75098 3.5647 6.47303 4.35947C5.19508 5.15424 4.22363 6.35801 3.7167 7.77499C3.68545 7.8846 3.63206 7.98663 3.55982 8.07478C3.48757 8.16293 3.39802 8.23532 3.29668 8.28748C3.19535 8.33964 3.08439 8.37046 2.97067 8.37804C2.85696 8.38561 2.74289 8.36978 2.63554 8.33152C2.52818 8.29326 2.42981 8.23339 2.34652 8.1556C2.26322 8.07781 2.19676 7.98376 2.15126 7.87927C2.10575 7.77478 2.08217 7.66206 2.08196 7.54809C2.08174 7.43412 2.10491 7.32132 2.15003 7.21666C2.77747 5.43672 3.99052 3.92248 5.59065 2.92175C7.19078 1.92103 9.08321 1.49309 10.9582 1.70799C12.8332 1.92289 14.5798 2.76788 15.912 4.10469C17.2442 5.44149 18.0832 7.19092 18.2917 9.06666C18.3151 9.2853 18.2512 9.50433 18.1138 9.67604C17.9765 9.84774 17.7768 9.95819 17.5584 9.98333L17.45 9.99999Z" fill="#AAAAAA"/>
</svg>
