<svg width="20" height="20" viewBox="0 0 20 20" fill="none" xmlns="http://www.w3.org/2000/svg">
<path d="M19 20H1C0.4 20 0 19.6 0 19V1C0 0.4 0.4 0 1 0H7C7.6 0 8 0.4 8 1V4H5C4.4 4 4 4.4 4 5C4 5.6 4.4 6 5 6H8V8H5C4.4 8 4 8.4 4 9C4 9.6 4.4 10 5 10H8V12H5C4.4 12 4 12.4 4 13C4 13.6 4.4 14 5 14H6V15C6 15.6 6.4 16 7 16C7.6 16 8 15.6 8 15V12H10V15C10 15.6 10.4 16 11 16C11.6 16 12 15.6 12 15V12H14V15C14 15.6 14.4 16 15 16C15.6 16 16 15.6 16 15V12H19C19.6 12 20 12.4 20 13V19C20 19.6 19.6 20 19 20Z" fill="#AAAAAA"/>
</svg>
