<svg width="20" height="20" viewBox="0 0 20 20" fill="none" xmlns="http://www.w3.org/2000/svg">
<path d="M10.5254 7.36894H9.47273V6.3163C9.47273 5.68472 9.05168 5.26367 8.4201 5.26367C7.78852 5.26367 7.36747 5.68472 7.36747 6.3163V7.36894H6.31484C5.68326 7.36894 5.26221 7.78999 5.26221 8.42157C5.26221 9.05315 5.68326 9.4742 6.31484 9.4742H7.36747V10.5268C7.36747 11.1584 7.78852 11.5795 8.4201 11.5795C9.05168 11.5795 9.47273 11.1584 9.47273 10.5268V9.4742H10.5254C11.1569 9.4742 11.578 9.05315 11.578 8.42157C11.578 7.78999 11.1569 7.36894 10.5254 7.36894Z" fill="#AAAAAA" fill-opacity="0.666667"/>
<path d="M15.0526 13.5789C16.1053 12.1053 16.8421 10.4211 16.8421 8.42105C16.8421 3.78947 13.0526 0 8.42105 0C3.78947 0 0 3.78947 0 8.42105C0 13.0526 3.78947 16.8421 8.42105 16.8421C10.4211 16.8421 12.2105 16.2105 13.5789 15.0526L18.2105 19.6842C18.4211 19.8947 18.7368 20 18.9474 20C19.1579 20 19.4737 19.8947 19.6842 19.6842C20.1053 19.2632 20.1053 18.6316 19.6842 18.2105L15.0526 13.5789ZM8.42105 14.7368C4.94737 14.7368 2.10526 11.8947 2.10526 8.42105C2.10526 4.94737 4.94737 2.10526 8.42105 2.10526C11.8947 2.10526 14.7368 4.94737 14.7368 8.42105C14.7368 11.8947 11.8947 14.7368 8.42105 14.7368Z" fill="#AAAAAA" fill-opacity="0.666667"/>
</svg>
